<?xml version="1.0" encoding="UTF-8"?>
<!-- Created with Inkscape (http://www.inkscape.org/) -->
<svg width="32" height="32" version="1.1" viewBox="0 0 32 32" xmlns="http://www.w3.org/2000/svg">
 <g transform="rotate(15 17.876 19.643)">
  <path d="m11.676 9.374c-3.0512 0.77347-6.7996 2.1407-7.9938 4.3439-2.3451 4.3266-1.9742 12.778 2.6251 14.529 1.7372 0.66125 4.2981 0.29583 4.3904-3.439 0.092218-3.7349 5.3026-3.9888 5.3026-3.9888s5.2105 0.25319 5.3027 3.9881c0.09222 3.7349 2.6523 4.1014 4.3895 3.4401 4.5993-1.7507 4.9713-10.202 2.6262-14.528-2.1231-3.9169-12.319-5.1876-12.319-5.1876s-1.9505 0.2415-4.3236 0.84308z" fill="#fff" stroke="#fff" stroke-linecap="round" stroke-linejoin="round" stroke-miterlimit="2.3" stroke-width="4" style="paint-order:normal"/>
  <path d="m16 8.5303s3.4582-7.4236 9.7291-5.6254" fill="none" stroke="#fff" stroke-linecap="round" stroke-linejoin="round" stroke-miterlimit="2.3" stroke-width="4" style="paint-order:normal"/>
  <circle cx="11.113" cy="19.152" r="2.7839" style="paint-order:normal"/>
  <circle cx="21.458" cy="19.507" r="2.7839" style="paint-order:normal"/>
 </g>
</svg>
